<mxfile host="app.diagrams.net" modified="2023-05-15T05:24:59.632Z" agent="Mozilla/5.0 (Windows NT 10.0; Win64; x64) AppleWebKit/537.36 (KHTML, like Gecko) Chrome/113.0.0.0 Safari/537.36 Edg/113.0.1774.42" etag="pfB60Zyt9rWUdfBjuIxi" version="21.3.0" type="device">
  <diagram id="C5RBs43oDa-KdzZeNtuy" name="Page-1">
    <mxGraphModel dx="2532" dy="1683" grid="0" gridSize="10" guides="1" tooltips="1" connect="1" arrows="1" fold="1" page="0" pageScale="1" pageWidth="827" pageHeight="1169" math="0" shadow="0">
      <root>
        <mxCell id="WIyWlLk6GJQsqaUBKTNV-0" />
        <mxCell id="WIyWlLk6GJQsqaUBKTNV-1" parent="WIyWlLk6GJQsqaUBKTNV-0" />
        <mxCell id="XLs1MbDZU_l78vJKN4ay-0" value="Medico" style="rounded=1;whiteSpace=wrap;html=1;" vertex="1" parent="WIyWlLk6GJQsqaUBKTNV-1">
          <mxGeometry x="20" y="120" width="120" height="60" as="geometry" />
        </mxCell>
        <mxCell id="XLs1MbDZU_l78vJKN4ay-1" value="" style="endArrow=none;html=1;rounded=0;exitX=1;exitY=0.5;exitDx=0;exitDy=0;" edge="1" parent="WIyWlLk6GJQsqaUBKTNV-1" source="XLs1MbDZU_l78vJKN4ay-0" target="XLs1MbDZU_l78vJKN4ay-2">
          <mxGeometry width="50" height="50" relative="1" as="geometry">
            <mxPoint x="330" y="450" as="sourcePoint" />
            <mxPoint x="260" y="150" as="targetPoint" />
          </mxGeometry>
        </mxCell>
        <mxCell id="XLs1MbDZU_l78vJKN4ay-41" value="(1)" style="edgeLabel;html=1;align=center;verticalAlign=middle;resizable=0;points=[];" vertex="1" connectable="0" parent="XLs1MbDZU_l78vJKN4ay-1">
          <mxGeometry x="-0.7143" y="1" relative="1" as="geometry">
            <mxPoint as="offset" />
          </mxGeometry>
        </mxCell>
        <mxCell id="XLs1MbDZU_l78vJKN4ay-2" value="Faz" style="rhombus;whiteSpace=wrap;html=1;" vertex="1" parent="WIyWlLk6GJQsqaUBKTNV-1">
          <mxGeometry x="220" y="110" width="80" height="80" as="geometry" />
        </mxCell>
        <mxCell id="XLs1MbDZU_l78vJKN4ay-3" value="" style="endArrow=none;html=1;rounded=0;exitX=1;exitY=0.5;exitDx=0;exitDy=0;" edge="1" parent="WIyWlLk6GJQsqaUBKTNV-1" target="XLs1MbDZU_l78vJKN4ay-4">
          <mxGeometry width="50" height="50" relative="1" as="geometry">
            <mxPoint x="300" y="149.5" as="sourcePoint" />
            <mxPoint x="380" y="149.5" as="targetPoint" />
          </mxGeometry>
        </mxCell>
        <mxCell id="XLs1MbDZU_l78vJKN4ay-42" value="(1)" style="edgeLabel;html=1;align=center;verticalAlign=middle;resizable=0;points=[];" vertex="1" connectable="0" parent="XLs1MbDZU_l78vJKN4ay-3">
          <mxGeometry x="0.8215" relative="1" as="geometry">
            <mxPoint x="-3" as="offset" />
          </mxGeometry>
        </mxCell>
        <mxCell id="XLs1MbDZU_l78vJKN4ay-4" value="Consulta" style="rounded=1;whiteSpace=wrap;html=1;" vertex="1" parent="WIyWlLk6GJQsqaUBKTNV-1">
          <mxGeometry x="380" y="120" width="120" height="60" as="geometry" />
        </mxCell>
        <mxCell id="XLs1MbDZU_l78vJKN4ay-5" value="" style="endArrow=none;html=1;rounded=0;entryX=1;entryY=0.5;entryDx=0;entryDy=0;exitX=0;exitY=0.5;exitDx=0;exitDy=0;" edge="1" parent="WIyWlLk6GJQsqaUBKTNV-1" source="XLs1MbDZU_l78vJKN4ay-6" target="XLs1MbDZU_l78vJKN4ay-4">
          <mxGeometry width="50" height="50" relative="1" as="geometry">
            <mxPoint x="500" y="250" as="sourcePoint" />
            <mxPoint x="450" y="160" as="targetPoint" />
          </mxGeometry>
        </mxCell>
        <mxCell id="XLs1MbDZU_l78vJKN4ay-43" value="(1)" style="edgeLabel;html=1;align=center;verticalAlign=middle;resizable=0;points=[];" vertex="1" connectable="0" parent="XLs1MbDZU_l78vJKN4ay-5">
          <mxGeometry x="0.873" y="-1" relative="1" as="geometry">
            <mxPoint x="4" y="1" as="offset" />
          </mxGeometry>
        </mxCell>
        <mxCell id="XLs1MbDZU_l78vJKN4ay-6" value="Tem" style="rhombus;whiteSpace=wrap;html=1;" vertex="1" parent="WIyWlLk6GJQsqaUBKTNV-1">
          <mxGeometry x="590" y="110" width="80" height="80" as="geometry" />
        </mxCell>
        <mxCell id="XLs1MbDZU_l78vJKN4ay-7" value="" style="endArrow=none;html=1;rounded=0;entryX=0.5;entryY=1;entryDx=0;entryDy=0;" edge="1" parent="WIyWlLk6GJQsqaUBKTNV-1" source="XLs1MbDZU_l78vJKN4ay-8" target="XLs1MbDZU_l78vJKN4ay-6">
          <mxGeometry width="50" height="50" relative="1" as="geometry">
            <mxPoint x="499.5" y="390" as="sourcePoint" />
            <mxPoint x="499.5" y="320" as="targetPoint" />
          </mxGeometry>
        </mxCell>
        <mxCell id="XLs1MbDZU_l78vJKN4ay-44" value="(1)" style="edgeLabel;html=1;align=center;verticalAlign=middle;resizable=0;points=[];" vertex="1" connectable="0" parent="XLs1MbDZU_l78vJKN4ay-7">
          <mxGeometry x="-0.8272" relative="1" as="geometry">
            <mxPoint y="-4" as="offset" />
          </mxGeometry>
        </mxCell>
        <mxCell id="XLs1MbDZU_l78vJKN4ay-8" value="Diagnostico" style="rounded=1;whiteSpace=wrap;html=1;" vertex="1" parent="WIyWlLk6GJQsqaUBKTNV-1">
          <mxGeometry x="570" y="260" width="120" height="60" as="geometry" />
        </mxCell>
        <mxCell id="XLs1MbDZU_l78vJKN4ay-9" value="" style="endArrow=none;html=1;rounded=0;entryX=0.5;entryY=1;entryDx=0;entryDy=0;exitX=0.5;exitY=0;exitDx=0;exitDy=0;" edge="1" parent="WIyWlLk6GJQsqaUBKTNV-1" source="XLs1MbDZU_l78vJKN4ay-10" target="XLs1MbDZU_l78vJKN4ay-0">
          <mxGeometry width="50" height="50" relative="1" as="geometry">
            <mxPoint x="80" y="260" as="sourcePoint" />
            <mxPoint x="440" y="400" as="targetPoint" />
          </mxGeometry>
        </mxCell>
        <mxCell id="XLs1MbDZU_l78vJKN4ay-40" value="(N)" style="edgeLabel;html=1;align=center;verticalAlign=middle;resizable=0;points=[];" vertex="1" connectable="0" parent="XLs1MbDZU_l78vJKN4ay-9">
          <mxGeometry x="0.839" relative="1" as="geometry">
            <mxPoint y="4" as="offset" />
          </mxGeometry>
        </mxCell>
        <mxCell id="XLs1MbDZU_l78vJKN4ay-10" value="Passa" style="rhombus;whiteSpace=wrap;html=1;" vertex="1" parent="WIyWlLk6GJQsqaUBKTNV-1">
          <mxGeometry x="40" y="250" width="80" height="80" as="geometry" />
        </mxCell>
        <mxCell id="XLs1MbDZU_l78vJKN4ay-11" value="Paciente" style="rounded=1;whiteSpace=wrap;html=1;" vertex="1" parent="WIyWlLk6GJQsqaUBKTNV-1">
          <mxGeometry x="20" y="410" width="120" height="60" as="geometry" />
        </mxCell>
        <mxCell id="XLs1MbDZU_l78vJKN4ay-12" value="" style="endArrow=none;html=1;rounded=0;entryX=0.5;entryY=1;entryDx=0;entryDy=0;" edge="1" parent="WIyWlLk6GJQsqaUBKTNV-1">
          <mxGeometry width="50" height="50" relative="1" as="geometry">
            <mxPoint x="80" y="410" as="sourcePoint" />
            <mxPoint x="80" y="330" as="targetPoint" />
          </mxGeometry>
        </mxCell>
        <mxCell id="XLs1MbDZU_l78vJKN4ay-39" value="(1)" style="edgeLabel;html=1;align=center;verticalAlign=middle;resizable=0;points=[];" vertex="1" connectable="0" parent="XLs1MbDZU_l78vJKN4ay-12">
          <mxGeometry x="-0.7524" y="-1" relative="1" as="geometry">
            <mxPoint x="-1" as="offset" />
          </mxGeometry>
        </mxCell>
        <mxCell id="XLs1MbDZU_l78vJKN4ay-13" value="" style="endArrow=none;html=1;rounded=0;exitX=0.5;exitY=0;exitDx=0;exitDy=0;entryX=0;entryY=1;entryDx=0;entryDy=0;" edge="1" parent="WIyWlLk6GJQsqaUBKTNV-1" source="XLs1MbDZU_l78vJKN4ay-14" target="XLs1MbDZU_l78vJKN4ay-15">
          <mxGeometry width="50" height="50" relative="1" as="geometry">
            <mxPoint x="630" y="390" as="sourcePoint" />
            <mxPoint x="640" y="200" as="targetPoint" />
          </mxGeometry>
        </mxCell>
        <mxCell id="XLs1MbDZU_l78vJKN4ay-52" value="(N)" style="edgeLabel;html=1;align=center;verticalAlign=middle;resizable=0;points=[];" vertex="1" connectable="0" parent="XLs1MbDZU_l78vJKN4ay-13">
          <mxGeometry x="0.8247" y="-1" relative="1" as="geometry">
            <mxPoint x="-8" y="3" as="offset" />
          </mxGeometry>
        </mxCell>
        <mxCell id="XLs1MbDZU_l78vJKN4ay-14" value="Tem" style="rhombus;whiteSpace=wrap;html=1;" vertex="1" parent="WIyWlLk6GJQsqaUBKTNV-1">
          <mxGeometry x="220" y="400" width="80" height="80" as="geometry" />
        </mxCell>
        <mxCell id="XLs1MbDZU_l78vJKN4ay-15" value="Hospital" style="rounded=1;whiteSpace=wrap;html=1;" vertex="1" parent="WIyWlLk6GJQsqaUBKTNV-1">
          <mxGeometry x="293" y="310" width="120" height="60" as="geometry" />
        </mxCell>
        <mxCell id="XLs1MbDZU_l78vJKN4ay-16" value="" style="endArrow=none;html=1;rounded=0;exitX=1;exitY=0.5;exitDx=0;exitDy=0;entryX=0;entryY=0.5;entryDx=0;entryDy=0;" edge="1" parent="WIyWlLk6GJQsqaUBKTNV-1" source="XLs1MbDZU_l78vJKN4ay-11" target="XLs1MbDZU_l78vJKN4ay-14">
          <mxGeometry width="50" height="50" relative="1" as="geometry">
            <mxPoint x="280" y="450" as="sourcePoint" />
            <mxPoint x="190" y="440" as="targetPoint" />
          </mxGeometry>
        </mxCell>
        <mxCell id="XLs1MbDZU_l78vJKN4ay-50" value="(N)" style="edgeLabel;html=1;align=center;verticalAlign=middle;resizable=0;points=[];" vertex="1" connectable="0" parent="XLs1MbDZU_l78vJKN4ay-16">
          <mxGeometry x="-0.7857" y="1" relative="1" as="geometry">
            <mxPoint as="offset" />
          </mxGeometry>
        </mxCell>
        <mxCell id="XLs1MbDZU_l78vJKN4ay-17" value="" style="endArrow=none;html=1;rounded=0;entryX=1;entryY=1;entryDx=0;entryDy=0;exitX=0;exitY=0;exitDx=0;exitDy=0;" edge="1" parent="WIyWlLk6GJQsqaUBKTNV-1" source="XLs1MbDZU_l78vJKN4ay-18" target="XLs1MbDZU_l78vJKN4ay-0">
          <mxGeometry width="50" height="50" relative="1" as="geometry">
            <mxPoint x="210" y="230" as="sourcePoint" />
            <mxPoint x="440" y="400" as="targetPoint" />
          </mxGeometry>
        </mxCell>
        <mxCell id="XLs1MbDZU_l78vJKN4ay-18" value="Em" style="rhombus;whiteSpace=wrap;html=1;" vertex="1" parent="WIyWlLk6GJQsqaUBKTNV-1">
          <mxGeometry x="160" y="200" width="80" height="80" as="geometry" />
        </mxCell>
        <mxCell id="XLs1MbDZU_l78vJKN4ay-19" value="" style="endArrow=none;html=1;rounded=0;entryX=1;entryY=0.5;entryDx=0;entryDy=0;exitX=0;exitY=0.5;exitDx=0;exitDy=0;" edge="1" parent="WIyWlLk6GJQsqaUBKTNV-1" source="XLs1MbDZU_l78vJKN4ay-15" target="XLs1MbDZU_l78vJKN4ay-18">
          <mxGeometry width="50" height="50" relative="1" as="geometry">
            <mxPoint x="390" y="450" as="sourcePoint" />
            <mxPoint x="440" y="400" as="targetPoint" />
          </mxGeometry>
        </mxCell>
        <mxCell id="XLs1MbDZU_l78vJKN4ay-51" value="(N)" style="edgeLabel;html=1;align=center;verticalAlign=middle;resizable=0;points=[];" vertex="1" connectable="0" parent="XLs1MbDZU_l78vJKN4ay-19">
          <mxGeometry x="-0.7838" relative="1" as="geometry">
            <mxPoint x="-5" y="-5" as="offset" />
          </mxGeometry>
        </mxCell>
        <mxCell id="XLs1MbDZU_l78vJKN4ay-20" value="Gerencia" style="rhombus;whiteSpace=wrap;html=1;" vertex="1" parent="WIyWlLk6GJQsqaUBKTNV-1">
          <mxGeometry x="450" y="250" width="80" height="80" as="geometry" />
        </mxCell>
        <mxCell id="XLs1MbDZU_l78vJKN4ay-21" value="" style="endArrow=none;html=1;rounded=0;entryX=0;entryY=0.5;entryDx=0;entryDy=0;exitX=1;exitY=0.5;exitDx=0;exitDy=0;" edge="1" parent="WIyWlLk6GJQsqaUBKTNV-1" source="XLs1MbDZU_l78vJKN4ay-15" target="XLs1MbDZU_l78vJKN4ay-20">
          <mxGeometry width="50" height="50" relative="1" as="geometry">
            <mxPoint x="390" y="450" as="sourcePoint" />
            <mxPoint x="440" y="400" as="targetPoint" />
          </mxGeometry>
        </mxCell>
        <mxCell id="XLs1MbDZU_l78vJKN4ay-46" value="(1)" style="edgeLabel;html=1;align=center;verticalAlign=middle;resizable=0;points=[];" vertex="1" connectable="0" parent="XLs1MbDZU_l78vJKN4ay-21">
          <mxGeometry x="-0.6905" relative="1" as="geometry">
            <mxPoint x="4" as="offset" />
          </mxGeometry>
        </mxCell>
        <mxCell id="XLs1MbDZU_l78vJKN4ay-22" value="" style="endArrow=none;html=1;rounded=0;entryX=0;entryY=0.5;entryDx=0;entryDy=0;exitX=1;exitY=0.5;exitDx=0;exitDy=0;" edge="1" parent="WIyWlLk6GJQsqaUBKTNV-1" source="XLs1MbDZU_l78vJKN4ay-20" target="XLs1MbDZU_l78vJKN4ay-8">
          <mxGeometry width="50" height="50" relative="1" as="geometry">
            <mxPoint x="420" y="300" as="sourcePoint" />
            <mxPoint x="460" y="300" as="targetPoint" />
          </mxGeometry>
        </mxCell>
        <mxCell id="XLs1MbDZU_l78vJKN4ay-45" value="(1)" style="edgeLabel;html=1;align=center;verticalAlign=middle;resizable=0;points=[];" vertex="1" connectable="0" parent="XLs1MbDZU_l78vJKN4ay-22">
          <mxGeometry x="0.5476" relative="1" as="geometry">
            <mxPoint as="offset" />
          </mxGeometry>
        </mxCell>
        <mxCell id="XLs1MbDZU_l78vJKN4ay-23" value="Gera" style="rhombus;whiteSpace=wrap;html=1;" vertex="1" parent="WIyWlLk6GJQsqaUBKTNV-1">
          <mxGeometry x="590" y="370" width="80" height="80" as="geometry" />
        </mxCell>
        <mxCell id="XLs1MbDZU_l78vJKN4ay-24" value="" style="endArrow=none;html=1;rounded=0;exitX=0.5;exitY=1;exitDx=0;exitDy=0;" edge="1" parent="WIyWlLk6GJQsqaUBKTNV-1" source="XLs1MbDZU_l78vJKN4ay-8" target="XLs1MbDZU_l78vJKN4ay-23">
          <mxGeometry width="50" height="50" relative="1" as="geometry">
            <mxPoint x="640" y="270" as="sourcePoint" />
            <mxPoint x="630" y="350" as="targetPoint" />
          </mxGeometry>
        </mxCell>
        <mxCell id="XLs1MbDZU_l78vJKN4ay-47" value="(1)" style="edgeLabel;html=1;align=center;verticalAlign=middle;resizable=0;points=[];" vertex="1" connectable="0" parent="XLs1MbDZU_l78vJKN4ay-24">
          <mxGeometry x="-0.7848" relative="1" as="geometry">
            <mxPoint y="5" as="offset" />
          </mxGeometry>
        </mxCell>
        <mxCell id="XLs1MbDZU_l78vJKN4ay-25" value="Receita" style="rounded=1;whiteSpace=wrap;html=1;" vertex="1" parent="WIyWlLk6GJQsqaUBKTNV-1">
          <mxGeometry x="570" y="510" width="120" height="60" as="geometry" />
        </mxCell>
        <mxCell id="XLs1MbDZU_l78vJKN4ay-27" value="" style="endArrow=none;html=1;rounded=0;entryX=0;entryY=0.5;entryDx=0;entryDy=0;exitX=1;exitY=0.5;exitDx=0;exitDy=0;" edge="1" parent="WIyWlLk6GJQsqaUBKTNV-1" source="XLs1MbDZU_l78vJKN4ay-14" target="XLs1MbDZU_l78vJKN4ay-25">
          <mxGeometry width="50" height="50" relative="1" as="geometry">
            <mxPoint x="390" y="450" as="sourcePoint" />
            <mxPoint x="440" y="400" as="targetPoint" />
          </mxGeometry>
        </mxCell>
        <mxCell id="XLs1MbDZU_l78vJKN4ay-49" value="(N)" style="edgeLabel;html=1;align=center;verticalAlign=middle;resizable=0;points=[];" vertex="1" connectable="0" parent="XLs1MbDZU_l78vJKN4ay-27">
          <mxGeometry x="0.9531" relative="1" as="geometry">
            <mxPoint x="-3" as="offset" />
          </mxGeometry>
        </mxCell>
        <mxCell id="XLs1MbDZU_l78vJKN4ay-28" value="" style="endArrow=none;html=1;rounded=0;entryX=0.5;entryY=1;entryDx=0;entryDy=0;exitX=0.5;exitY=0;exitDx=0;exitDy=0;" edge="1" parent="WIyWlLk6GJQsqaUBKTNV-1" source="XLs1MbDZU_l78vJKN4ay-25" target="XLs1MbDZU_l78vJKN4ay-23">
          <mxGeometry width="50" height="50" relative="1" as="geometry">
            <mxPoint x="390" y="450" as="sourcePoint" />
            <mxPoint x="440" y="400" as="targetPoint" />
          </mxGeometry>
        </mxCell>
        <mxCell id="XLs1MbDZU_l78vJKN4ay-48" value="(0)" style="edgeLabel;html=1;align=center;verticalAlign=middle;resizable=0;points=[];" vertex="1" connectable="0" parent="XLs1MbDZU_l78vJKN4ay-28">
          <mxGeometry x="-0.719" relative="1" as="geometry">
            <mxPoint as="offset" />
          </mxGeometry>
        </mxCell>
        <mxCell id="XLs1MbDZU_l78vJKN4ay-33" value="Tem" style="rhombus;whiteSpace=wrap;html=1;" vertex="1" parent="WIyWlLk6GJQsqaUBKTNV-1">
          <mxGeometry x="40" y="500" width="80" height="80" as="geometry" />
        </mxCell>
        <mxCell id="XLs1MbDZU_l78vJKN4ay-34" value="" style="endArrow=none;html=1;rounded=0;exitX=0.5;exitY=0;exitDx=0;exitDy=0;entryX=0.5;entryY=1;entryDx=0;entryDy=0;" edge="1" parent="WIyWlLk6GJQsqaUBKTNV-1" source="XLs1MbDZU_l78vJKN4ay-33" target="XLs1MbDZU_l78vJKN4ay-11">
          <mxGeometry width="50" height="50" relative="1" as="geometry">
            <mxPoint x="230" y="410" as="sourcePoint" />
            <mxPoint x="280" y="360" as="targetPoint" />
          </mxGeometry>
        </mxCell>
        <mxCell id="XLs1MbDZU_l78vJKN4ay-38" value="(N)" style="edgeLabel;html=1;align=center;verticalAlign=middle;resizable=0;points=[];" vertex="1" connectable="0" parent="XLs1MbDZU_l78vJKN4ay-34">
          <mxGeometry x="0.4825" relative="1" as="geometry">
            <mxPoint y="2" as="offset" />
          </mxGeometry>
        </mxCell>
        <mxCell id="XLs1MbDZU_l78vJKN4ay-35" value="Convenio" style="rounded=1;whiteSpace=wrap;html=1;" vertex="1" parent="WIyWlLk6GJQsqaUBKTNV-1">
          <mxGeometry x="20" y="640" width="120" height="60" as="geometry" />
        </mxCell>
        <mxCell id="XLs1MbDZU_l78vJKN4ay-36" value="" style="endArrow=none;html=1;rounded=0;exitX=0.5;exitY=0;exitDx=0;exitDy=0;entryX=0.5;entryY=1;entryDx=0;entryDy=0;" edge="1" parent="WIyWlLk6GJQsqaUBKTNV-1" source="XLs1MbDZU_l78vJKN4ay-35" target="XLs1MbDZU_l78vJKN4ay-33">
          <mxGeometry width="50" height="50" relative="1" as="geometry">
            <mxPoint x="220" y="580" as="sourcePoint" />
            <mxPoint x="270" y="530" as="targetPoint" />
          </mxGeometry>
        </mxCell>
        <mxCell id="XLs1MbDZU_l78vJKN4ay-37" value="(0)" style="edgeLabel;html=1;align=center;verticalAlign=middle;resizable=0;points=[];" vertex="1" connectable="0" parent="XLs1MbDZU_l78vJKN4ay-36">
          <mxGeometry x="-0.5667" y="-1" relative="1" as="geometry">
            <mxPoint x="-1" as="offset" />
          </mxGeometry>
        </mxCell>
        <mxCell id="XLs1MbDZU_l78vJKN4ay-53" value="Documentos" style="rounded=1;whiteSpace=wrap;html=1;" vertex="1" parent="WIyWlLk6GJQsqaUBKTNV-1">
          <mxGeometry x="294" y="20" width="120" height="60" as="geometry" />
        </mxCell>
        <mxCell id="XLs1MbDZU_l78vJKN4ay-64" value="(1)" style="edgeLabel;html=1;align=center;verticalAlign=middle;resizable=0;points=[];" vertex="1" connectable="0" parent="WIyWlLk6GJQsqaUBKTNV-1">
          <mxGeometry x="161" y="159" as="geometry">
            <mxPoint x="-13" y="29" as="offset" />
          </mxGeometry>
        </mxCell>
        <mxCell id="XLs1MbDZU_l78vJKN4ay-73" value="Tem" style="rhombus;whiteSpace=wrap;html=1;" vertex="1" parent="WIyWlLk6GJQsqaUBKTNV-1">
          <mxGeometry x="40" y="10" width="80" height="80" as="geometry" />
        </mxCell>
        <mxCell id="XLs1MbDZU_l78vJKN4ay-74" value="" style="endArrow=none;html=1;rounded=0;exitX=0.5;exitY=0;exitDx=0;exitDy=0;entryX=0.5;entryY=1;entryDx=0;entryDy=0;" edge="1" parent="WIyWlLk6GJQsqaUBKTNV-1" source="XLs1MbDZU_l78vJKN4ay-0" target="XLs1MbDZU_l78vJKN4ay-73">
          <mxGeometry width="50" height="50" relative="1" as="geometry">
            <mxPoint x="180" y="130" as="sourcePoint" />
            <mxPoint x="230" y="80" as="targetPoint" />
          </mxGeometry>
        </mxCell>
        <mxCell id="XLs1MbDZU_l78vJKN4ay-76" value="(1)" style="edgeLabel;html=1;align=center;verticalAlign=middle;resizable=0;points=[];" vertex="1" connectable="0" parent="XLs1MbDZU_l78vJKN4ay-74">
          <mxGeometry x="-0.6854" relative="1" as="geometry">
            <mxPoint y="-4" as="offset" />
          </mxGeometry>
        </mxCell>
        <mxCell id="XLs1MbDZU_l78vJKN4ay-75" value="" style="endArrow=none;html=1;rounded=0;entryX=0;entryY=0.5;entryDx=0;entryDy=0;exitX=1;exitY=0.5;exitDx=0;exitDy=0;" edge="1" parent="WIyWlLk6GJQsqaUBKTNV-1" source="XLs1MbDZU_l78vJKN4ay-73" target="XLs1MbDZU_l78vJKN4ay-53">
          <mxGeometry width="50" height="50" relative="1" as="geometry">
            <mxPoint x="180" y="130" as="sourcePoint" />
            <mxPoint x="230" y="80" as="targetPoint" />
          </mxGeometry>
        </mxCell>
        <mxCell id="XLs1MbDZU_l78vJKN4ay-77" value="(N)" style="edgeLabel;html=1;align=center;verticalAlign=middle;resizable=0;points=[];" vertex="1" connectable="0" parent="XLs1MbDZU_l78vJKN4ay-75">
          <mxGeometry x="0.8951" relative="1" as="geometry">
            <mxPoint as="offset" />
          </mxGeometry>
        </mxCell>
        <mxCell id="XLs1MbDZU_l78vJKN4ay-78" value="" style="endArrow=none;html=1;rounded=0;exitX=1;exitY=0;exitDx=0;exitDy=0;entryX=0.334;entryY=1.047;entryDx=0;entryDy=0;entryPerimeter=0;" edge="1" parent="WIyWlLk6GJQsqaUBKTNV-1" source="XLs1MbDZU_l78vJKN4ay-80" target="XLs1MbDZU_l78vJKN4ay-53">
          <mxGeometry width="50" height="50" relative="1" as="geometry">
            <mxPoint x="320" y="260" as="sourcePoint" />
            <mxPoint x="330" y="230" as="targetPoint" />
          </mxGeometry>
        </mxCell>
        <mxCell id="XLs1MbDZU_l78vJKN4ay-81" value="" style="endArrow=none;html=1;rounded=0;exitX=1;exitY=0;exitDx=0;exitDy=0;entryX=0;entryY=1;entryDx=0;entryDy=0;" edge="1" parent="WIyWlLk6GJQsqaUBKTNV-1" source="XLs1MbDZU_l78vJKN4ay-11" target="XLs1MbDZU_l78vJKN4ay-80">
          <mxGeometry width="50" height="50" relative="1" as="geometry">
            <mxPoint x="140" y="410" as="sourcePoint" />
            <mxPoint x="333" y="230" as="targetPoint" />
          </mxGeometry>
        </mxCell>
        <mxCell id="XLs1MbDZU_l78vJKN4ay-82" value="(1)" style="edgeLabel;html=1;align=center;verticalAlign=middle;resizable=0;points=[];" vertex="1" connectable="0" parent="XLs1MbDZU_l78vJKN4ay-81">
          <mxGeometry x="-0.9223" relative="1" as="geometry">
            <mxPoint as="offset" />
          </mxGeometry>
        </mxCell>
        <mxCell id="XLs1MbDZU_l78vJKN4ay-80" value="Tem" style="rhombus;whiteSpace=wrap;html=1;" vertex="1" parent="WIyWlLk6GJQsqaUBKTNV-1">
          <mxGeometry x="190" y="290" width="80" height="80" as="geometry" />
        </mxCell>
        <mxCell id="XLs1MbDZU_l78vJKN4ay-84" value="(N)" style="edgeLabel;html=1;align=center;verticalAlign=middle;resizable=0;points=[];" vertex="1" connectable="0" parent="WIyWlLk6GJQsqaUBKTNV-1">
          <mxGeometry x="350.9997268607409" y="80.99569330149869" as="geometry">
            <mxPoint x="-20" y="11" as="offset" />
          </mxGeometry>
        </mxCell>
        <mxCell id="XLs1MbDZU_l78vJKN4ay-142" value="Tipo_medico" style="rounded=1;whiteSpace=wrap;html=1;" vertex="1" parent="WIyWlLk6GJQsqaUBKTNV-1">
          <mxGeometry x="-351" y="120" width="120" height="60" as="geometry" />
        </mxCell>
        <mxCell id="XLs1MbDZU_l78vJKN4ay-143" value="Tipo" style="rhombus;whiteSpace=wrap;html=1;" vertex="1" parent="WIyWlLk6GJQsqaUBKTNV-1">
          <mxGeometry x="-156" y="110" width="80" height="80" as="geometry" />
        </mxCell>
        <mxCell id="XLs1MbDZU_l78vJKN4ay-144" value="" style="endArrow=none;html=1;rounded=0;entryX=0;entryY=0.5;entryDx=0;entryDy=0;exitX=1;exitY=0.5;exitDx=0;exitDy=0;" edge="1" parent="WIyWlLk6GJQsqaUBKTNV-1" source="XLs1MbDZU_l78vJKN4ay-143" target="XLs1MbDZU_l78vJKN4ay-0">
          <mxGeometry width="50" height="50" relative="1" as="geometry">
            <mxPoint x="-11" y="233" as="sourcePoint" />
            <mxPoint x="39" y="183" as="targetPoint" />
          </mxGeometry>
        </mxCell>
        <mxCell id="XLs1MbDZU_l78vJKN4ay-146" value="(1)" style="edgeLabel;html=1;align=center;verticalAlign=middle;resizable=0;points=[];" vertex="1" connectable="0" parent="XLs1MbDZU_l78vJKN4ay-144">
          <mxGeometry x="0.7616" relative="1" as="geometry">
            <mxPoint as="offset" />
          </mxGeometry>
        </mxCell>
        <mxCell id="XLs1MbDZU_l78vJKN4ay-145" value="" style="endArrow=none;html=1;rounded=0;exitX=1;exitY=0.5;exitDx=0;exitDy=0;entryX=0;entryY=0.5;entryDx=0;entryDy=0;" edge="1" parent="WIyWlLk6GJQsqaUBKTNV-1" source="XLs1MbDZU_l78vJKN4ay-142" target="XLs1MbDZU_l78vJKN4ay-143">
          <mxGeometry width="50" height="50" relative="1" as="geometry">
            <mxPoint x="-11" y="233" as="sourcePoint" />
            <mxPoint x="39" y="183" as="targetPoint" />
          </mxGeometry>
        </mxCell>
        <mxCell id="XLs1MbDZU_l78vJKN4ay-147" value="(1)" style="edgeLabel;html=1;align=center;verticalAlign=middle;resizable=0;points=[];" vertex="1" connectable="0" parent="XLs1MbDZU_l78vJKN4ay-145">
          <mxGeometry x="-0.6563" y="1" relative="1" as="geometry">
            <mxPoint as="offset" />
          </mxGeometry>
        </mxCell>
        <mxCell id="XLs1MbDZU_l78vJKN4ay-148" value="Especialdiade" style="rounded=1;whiteSpace=wrap;html=1;" vertex="1" parent="WIyWlLk6GJQsqaUBKTNV-1">
          <mxGeometry x="-351" y="265" width="120" height="60" as="geometry" />
        </mxCell>
        <mxCell id="XLs1MbDZU_l78vJKN4ay-149" value="Tem" style="rhombus;whiteSpace=wrap;html=1;" vertex="1" parent="WIyWlLk6GJQsqaUBKTNV-1">
          <mxGeometry x="-167" y="255" width="80" height="80" as="geometry" />
        </mxCell>
        <mxCell id="XLs1MbDZU_l78vJKN4ay-150" value="" style="endArrow=none;html=1;rounded=0;exitX=1;exitY=0.5;exitDx=0;exitDy=0;entryX=0.115;entryY=1.009;entryDx=0;entryDy=0;entryPerimeter=0;" edge="1" parent="WIyWlLk6GJQsqaUBKTNV-1" source="XLs1MbDZU_l78vJKN4ay-149" target="XLs1MbDZU_l78vJKN4ay-0">
          <mxGeometry width="50" height="50" relative="1" as="geometry">
            <mxPoint x="-11" y="233" as="sourcePoint" />
            <mxPoint x="39" y="183" as="targetPoint" />
          </mxGeometry>
        </mxCell>
        <mxCell id="XLs1MbDZU_l78vJKN4ay-152" value="(1)" style="edgeLabel;html=1;align=center;verticalAlign=middle;resizable=0;points=[];" vertex="1" connectable="0" parent="XLs1MbDZU_l78vJKN4ay-150">
          <mxGeometry x="0.8238" y="-1" relative="1" as="geometry">
            <mxPoint x="-2" as="offset" />
          </mxGeometry>
        </mxCell>
        <mxCell id="XLs1MbDZU_l78vJKN4ay-151" value="" style="endArrow=none;html=1;rounded=0;exitX=1;exitY=0.5;exitDx=0;exitDy=0;entryX=0;entryY=0.5;entryDx=0;entryDy=0;" edge="1" parent="WIyWlLk6GJQsqaUBKTNV-1" source="XLs1MbDZU_l78vJKN4ay-148" target="XLs1MbDZU_l78vJKN4ay-149">
          <mxGeometry width="50" height="50" relative="1" as="geometry">
            <mxPoint x="-11" y="233" as="sourcePoint" />
            <mxPoint x="39" y="183" as="targetPoint" />
          </mxGeometry>
        </mxCell>
        <mxCell id="XLs1MbDZU_l78vJKN4ay-153" value="(1)" style="edgeLabel;html=1;align=center;verticalAlign=middle;resizable=0;points=[];" vertex="1" connectable="0" parent="XLs1MbDZU_l78vJKN4ay-151">
          <mxGeometry x="-0.5509" y="1" relative="1" as="geometry">
            <mxPoint as="offset" />
          </mxGeometry>
        </mxCell>
        <mxCell id="XLs1MbDZU_l78vJKN4ay-154" value="" style="endArrow=none;html=1;rounded=0;exitX=0.25;exitY=0;exitDx=0;exitDy=0;" edge="1" parent="WIyWlLk6GJQsqaUBKTNV-1" source="XLs1MbDZU_l78vJKN4ay-53" target="XLs1MbDZU_l78vJKN4ay-155">
          <mxGeometry width="50" height="50" relative="1" as="geometry">
            <mxPoint x="309" y="20" as="sourcePoint" />
            <mxPoint x="309" y="-59" as="targetPoint" />
          </mxGeometry>
        </mxCell>
        <mxCell id="XLs1MbDZU_l78vJKN4ay-155" value="Data_nascimento" style="text;strokeColor=none;align=center;fillColor=none;html=1;verticalAlign=middle;whiteSpace=wrap;rounded=0;" vertex="1" parent="WIyWlLk6GJQsqaUBKTNV-1">
          <mxGeometry x="294.0033333333333" y="-65.99555555555565" width="60" height="30" as="geometry" />
        </mxCell>
        <mxCell id="XLs1MbDZU_l78vJKN4ay-156" value="" style="endArrow=none;html=1;rounded=0;entryX=0.486;entryY=0.957;entryDx=0;entryDy=0;entryPerimeter=0;exitX=0.5;exitY=0;exitDx=0;exitDy=0;" edge="1" parent="WIyWlLk6GJQsqaUBKTNV-1" source="XLs1MbDZU_l78vJKN4ay-53" target="XLs1MbDZU_l78vJKN4ay-157">
          <mxGeometry width="50" height="50" relative="1" as="geometry">
            <mxPoint x="337" y="18" as="sourcePoint" />
            <mxPoint x="366" y="-17" as="targetPoint" />
          </mxGeometry>
        </mxCell>
        <mxCell id="XLs1MbDZU_l78vJKN4ay-157" value="endereço" style="text;html=1;align=center;verticalAlign=middle;resizable=0;points=[];autosize=1;strokeColor=none;fillColor=none;" vertex="1" parent="WIyWlLk6GJQsqaUBKTNV-1">
          <mxGeometry x="320" y="-36" width="68" height="26" as="geometry" />
        </mxCell>
        <mxCell id="XLs1MbDZU_l78vJKN4ay-158" value="" style="endArrow=none;html=1;rounded=0;entryX=0.458;entryY=0.979;entryDx=0;entryDy=0;entryPerimeter=0;exitX=0.813;exitY=0.046;exitDx=0;exitDy=0;exitPerimeter=0;" edge="1" parent="WIyWlLk6GJQsqaUBKTNV-1" source="XLs1MbDZU_l78vJKN4ay-53" target="XLs1MbDZU_l78vJKN4ay-159">
          <mxGeometry width="50" height="50" relative="1" as="geometry">
            <mxPoint x="376" y="18" as="sourcePoint" />
            <mxPoint x="374" y="-39" as="targetPoint" />
          </mxGeometry>
        </mxCell>
        <mxCell id="XLs1MbDZU_l78vJKN4ay-159" value="cpf" style="text;html=1;align=center;verticalAlign=middle;resizable=0;points=[];autosize=1;strokeColor=none;fillColor=none;" vertex="1" parent="WIyWlLk6GJQsqaUBKTNV-1">
          <mxGeometry x="376" y="-48" width="34" height="26" as="geometry" />
        </mxCell>
        <mxCell id="XLs1MbDZU_l78vJKN4ay-160" value="" style="endArrow=none;html=1;rounded=0;exitX=0.471;exitY=0.973;exitDx=0;exitDy=0;exitPerimeter=0;" edge="1" parent="WIyWlLk6GJQsqaUBKTNV-1" source="XLs1MbDZU_l78vJKN4ay-161">
          <mxGeometry width="50" height="50" relative="1" as="geometry">
            <mxPoint x="397" y="-12" as="sourcePoint" />
            <mxPoint x="412" y="21" as="targetPoint" />
          </mxGeometry>
        </mxCell>
        <mxCell id="XLs1MbDZU_l78vJKN4ay-161" value="rg" style="text;html=1;align=center;verticalAlign=middle;resizable=0;points=[];autosize=1;strokeColor=none;fillColor=none;" vertex="1" parent="WIyWlLk6GJQsqaUBKTNV-1">
          <mxGeometry x="401" y="-22" width="29" height="26" as="geometry" />
        </mxCell>
        <mxCell id="XLs1MbDZU_l78vJKN4ay-164" value="" style="endArrow=none;html=1;rounded=0;entryX=0.588;entryY=1.051;entryDx=0;entryDy=0;entryPerimeter=0;" edge="1" parent="WIyWlLk6GJQsqaUBKTNV-1" target="XLs1MbDZU_l78vJKN4ay-165">
          <mxGeometry width="50" height="50" relative="1" as="geometry">
            <mxPoint x="303" y="17" as="sourcePoint" />
            <mxPoint x="311" y="-10" as="targetPoint" />
          </mxGeometry>
        </mxCell>
        <mxCell id="XLs1MbDZU_l78vJKN4ay-165" value="ID" style="text;html=1;align=center;verticalAlign=middle;resizable=0;points=[];autosize=1;strokeColor=none;fillColor=none;" vertex="1" parent="WIyWlLk6GJQsqaUBKTNV-1">
          <mxGeometry x="285" y="-31" width="30" height="26" as="geometry" />
        </mxCell>
        <mxCell id="XLs1MbDZU_l78vJKN4ay-166" value="Contato" style="rounded=1;whiteSpace=wrap;html=1;" vertex="1" parent="WIyWlLk6GJQsqaUBKTNV-1">
          <mxGeometry x="-257" y="410" width="120" height="60" as="geometry" />
        </mxCell>
        <mxCell id="XLs1MbDZU_l78vJKN4ay-167" value="Tem" style="rhombus;whiteSpace=wrap;html=1;" vertex="1" parent="WIyWlLk6GJQsqaUBKTNV-1">
          <mxGeometry x="-99" y="400" width="80" height="80" as="geometry" />
        </mxCell>
        <mxCell id="XLs1MbDZU_l78vJKN4ay-168" value="" style="endArrow=none;html=1;rounded=0;exitX=0;exitY=0.5;exitDx=0;exitDy=0;entryX=1;entryY=0.5;entryDx=0;entryDy=0;" edge="1" parent="WIyWlLk6GJQsqaUBKTNV-1" source="XLs1MbDZU_l78vJKN4ay-11" target="XLs1MbDZU_l78vJKN4ay-167">
          <mxGeometry width="50" height="50" relative="1" as="geometry">
            <mxPoint x="104" y="354" as="sourcePoint" />
            <mxPoint x="154" y="304" as="targetPoint" />
          </mxGeometry>
        </mxCell>
        <mxCell id="XLs1MbDZU_l78vJKN4ay-177" value="(1)" style="edgeLabel;html=1;align=center;verticalAlign=middle;resizable=0;points=[];" vertex="1" connectable="0" parent="XLs1MbDZU_l78vJKN4ay-168">
          <mxGeometry x="-0.4131" y="-1" relative="1" as="geometry">
            <mxPoint as="offset" />
          </mxGeometry>
        </mxCell>
        <mxCell id="XLs1MbDZU_l78vJKN4ay-169" value="" style="endArrow=none;html=1;rounded=0;entryX=1;entryY=0.5;entryDx=0;entryDy=0;exitX=0;exitY=0.5;exitDx=0;exitDy=0;" edge="1" parent="WIyWlLk6GJQsqaUBKTNV-1" source="XLs1MbDZU_l78vJKN4ay-167" target="XLs1MbDZU_l78vJKN4ay-166">
          <mxGeometry width="50" height="50" relative="1" as="geometry">
            <mxPoint x="104" y="354" as="sourcePoint" />
            <mxPoint x="154" y="304" as="targetPoint" />
          </mxGeometry>
        </mxCell>
        <mxCell id="XLs1MbDZU_l78vJKN4ay-178" value="(N)" style="edgeLabel;html=1;align=center;verticalAlign=middle;resizable=0;points=[];" vertex="1" connectable="0" parent="XLs1MbDZU_l78vJKN4ay-169">
          <mxGeometry x="0.5127" y="1" relative="1" as="geometry">
            <mxPoint as="offset" />
          </mxGeometry>
        </mxCell>
        <mxCell id="XLs1MbDZU_l78vJKN4ay-170" value="" style="endArrow=none;html=1;rounded=0;exitX=0.145;exitY=0.002;exitDx=0;exitDy=0;exitPerimeter=0;" edge="1" parent="WIyWlLk6GJQsqaUBKTNV-1" source="XLs1MbDZU_l78vJKN4ay-166">
          <mxGeometry width="50" height="50" relative="1" as="geometry">
            <mxPoint x="19" y="371" as="sourcePoint" />
            <mxPoint x="-240" y="381" as="targetPoint" />
          </mxGeometry>
        </mxCell>
        <mxCell id="XLs1MbDZU_l78vJKN4ay-171" value="id" style="text;html=1;align=center;verticalAlign=middle;resizable=0;points=[];autosize=1;strokeColor=none;fillColor=none;" vertex="1" parent="WIyWlLk6GJQsqaUBKTNV-1">
          <mxGeometry x="-254" y="355" width="27" height="26" as="geometry" />
        </mxCell>
        <mxCell id="XLs1MbDZU_l78vJKN4ay-172" value="" style="endArrow=none;html=1;rounded=0;" edge="1" parent="WIyWlLk6GJQsqaUBKTNV-1">
          <mxGeometry width="50" height="50" relative="1" as="geometry">
            <mxPoint x="-217" y="409" as="sourcePoint" />
            <mxPoint x="-217" y="367" as="targetPoint" />
          </mxGeometry>
        </mxCell>
        <mxCell id="XLs1MbDZU_l78vJKN4ay-173" value="telefone" style="text;html=1;align=center;verticalAlign=middle;resizable=0;points=[];autosize=1;strokeColor=none;fillColor=none;" vertex="1" parent="WIyWlLk6GJQsqaUBKTNV-1">
          <mxGeometry x="-246" y="340" width="61" height="26" as="geometry" />
        </mxCell>
        <mxCell id="XLs1MbDZU_l78vJKN4ay-174" value="" style="endArrow=none;html=1;rounded=0;entryX=0.513;entryY=0.96;entryDx=0;entryDy=0;entryPerimeter=0;" edge="1" parent="WIyWlLk6GJQsqaUBKTNV-1" target="XLs1MbDZU_l78vJKN4ay-175">
          <mxGeometry width="50" height="50" relative="1" as="geometry">
            <mxPoint x="-177" y="409" as="sourcePoint" />
            <mxPoint x="-184" y="395" as="targetPoint" />
          </mxGeometry>
        </mxCell>
        <mxCell id="XLs1MbDZU_l78vJKN4ay-175" value="email" style="text;html=1;align=center;verticalAlign=middle;resizable=0;points=[];autosize=1;strokeColor=none;fillColor=none;" vertex="1" parent="WIyWlLk6GJQsqaUBKTNV-1">
          <mxGeometry x="-200" y="360" width="47" height="26" as="geometry" />
        </mxCell>
        <mxCell id="XLs1MbDZU_l78vJKN4ay-179" value="" style="endArrow=none;html=1;rounded=0;exitX=0.144;exitY=0.009;exitDx=0;exitDy=0;exitPerimeter=0;entryX=0.494;entryY=1.024;entryDx=0;entryDy=0;entryPerimeter=0;" edge="1" parent="WIyWlLk6GJQsqaUBKTNV-1" source="XLs1MbDZU_l78vJKN4ay-142" target="XLs1MbDZU_l78vJKN4ay-180">
          <mxGeometry width="50" height="50" relative="1" as="geometry">
            <mxPoint x="-91" y="262" as="sourcePoint" />
            <mxPoint x="-336" y="90" as="targetPoint" />
          </mxGeometry>
        </mxCell>
        <mxCell id="XLs1MbDZU_l78vJKN4ay-180" value="id" style="text;html=1;align=center;verticalAlign=middle;resizable=0;points=[];autosize=1;strokeColor=none;fillColor=none;" vertex="1" parent="WIyWlLk6GJQsqaUBKTNV-1">
          <mxGeometry x="-348" y="75" width="27" height="26" as="geometry" />
        </mxCell>
        <mxCell id="XLs1MbDZU_l78vJKN4ay-182" value="" style="endArrow=none;html=1;rounded=0;exitX=0.552;exitY=0.009;exitDx=0;exitDy=0;exitPerimeter=0;" edge="1" parent="WIyWlLk6GJQsqaUBKTNV-1" source="XLs1MbDZU_l78vJKN4ay-142" target="XLs1MbDZU_l78vJKN4ay-183">
          <mxGeometry width="50" height="50" relative="1" as="geometry">
            <mxPoint x="-91" y="262" as="sourcePoint" />
            <mxPoint x="-285" y="94" as="targetPoint" />
          </mxGeometry>
        </mxCell>
        <mxCell id="XLs1MbDZU_l78vJKN4ay-183" value="tipo" style="text;html=1;align=center;verticalAlign=middle;resizable=0;points=[];autosize=1;strokeColor=none;fillColor=none;" vertex="1" parent="WIyWlLk6GJQsqaUBKTNV-1">
          <mxGeometry x="-304" y="72" width="37" height="26" as="geometry" />
        </mxCell>
        <mxCell id="XLs1MbDZU_l78vJKN4ay-184" value="id" style="text;html=1;align=center;verticalAlign=middle;resizable=0;points=[];autosize=1;strokeColor=none;fillColor=none;" vertex="1" parent="WIyWlLk6GJQsqaUBKTNV-1">
          <mxGeometry x="-338" y="217" width="27" height="26" as="geometry" />
        </mxCell>
        <mxCell id="XLs1MbDZU_l78vJKN4ay-185" value="especialidade" style="text;html=1;align=center;verticalAlign=middle;resizable=0;points=[];autosize=1;strokeColor=none;fillColor=none;" vertex="1" parent="WIyWlLk6GJQsqaUBKTNV-1">
          <mxGeometry x="-307" y="217" width="91" height="26" as="geometry" />
        </mxCell>
        <mxCell id="XLs1MbDZU_l78vJKN4ay-186" value="" style="endArrow=none;html=1;rounded=0;exitX=0.448;exitY=1.075;exitDx=0;exitDy=0;exitPerimeter=0;entryX=0.706;entryY=0.024;entryDx=0;entryDy=0;entryPerimeter=0;" edge="1" parent="WIyWlLk6GJQsqaUBKTNV-1" source="XLs1MbDZU_l78vJKN4ay-185" target="XLs1MbDZU_l78vJKN4ay-148">
          <mxGeometry width="50" height="50" relative="1" as="geometry">
            <mxPoint x="-8" y="274" as="sourcePoint" />
            <mxPoint x="42" y="224" as="targetPoint" />
          </mxGeometry>
        </mxCell>
        <mxCell id="XLs1MbDZU_l78vJKN4ay-187" value="" style="endArrow=none;html=1;rounded=0;exitX=0.462;exitY=1.047;exitDx=0;exitDy=0;exitPerimeter=0;" edge="1" parent="WIyWlLk6GJQsqaUBKTNV-1" source="XLs1MbDZU_l78vJKN4ay-184">
          <mxGeometry width="50" height="50" relative="1" as="geometry">
            <mxPoint x="-8" y="274" as="sourcePoint" />
            <mxPoint x="-326" y="263" as="targetPoint" />
          </mxGeometry>
        </mxCell>
        <mxCell id="XLs1MbDZU_l78vJKN4ay-188" value="" style="endArrow=none;html=1;rounded=0;entryX=0.047;entryY=0.027;entryDx=0;entryDy=0;entryPerimeter=0;" edge="1" parent="WIyWlLk6GJQsqaUBKTNV-1" target="XLs1MbDZU_l78vJKN4ay-11">
          <mxGeometry width="50" height="50" relative="1" as="geometry">
            <mxPoint x="11" y="382" as="sourcePoint" />
            <mxPoint x="96" y="432" as="targetPoint" />
          </mxGeometry>
        </mxCell>
        <mxCell id="XLs1MbDZU_l78vJKN4ay-189" value="nome" style="text;html=1;align=center;verticalAlign=middle;resizable=0;points=[];autosize=1;strokeColor=none;fillColor=none;" vertex="1" parent="WIyWlLk6GJQsqaUBKTNV-1">
          <mxGeometry x="-16" y="356" width="48" height="26" as="geometry" />
        </mxCell>
        <mxCell id="XLs1MbDZU_l78vJKN4ay-190" value="" style="endArrow=none;html=1;rounded=0;exitX=0.75;exitY=0;exitDx=0;exitDy=0;" edge="1" parent="WIyWlLk6GJQsqaUBKTNV-1" source="XLs1MbDZU_l78vJKN4ay-11">
          <mxGeometry width="50" height="50" relative="1" as="geometry">
            <mxPoint x="129" y="453" as="sourcePoint" />
            <mxPoint x="116" y="373" as="targetPoint" />
          </mxGeometry>
        </mxCell>
        <mxCell id="XLs1MbDZU_l78vJKN4ay-191" value="id_docs" style="text;html=1;align=center;verticalAlign=middle;resizable=0;points=[];autosize=1;strokeColor=none;fillColor=none;" vertex="1" parent="WIyWlLk6GJQsqaUBKTNV-1">
          <mxGeometry x="88" y="342" width="59" height="26" as="geometry" />
        </mxCell>
        <mxCell id="XLs1MbDZU_l78vJKN4ay-192" value="" style="endArrow=none;html=1;rounded=0;entryX=0.071;entryY=0.978;entryDx=0;entryDy=0;entryPerimeter=0;" edge="1" parent="WIyWlLk6GJQsqaUBKTNV-1" target="XLs1MbDZU_l78vJKN4ay-11">
          <mxGeometry width="50" height="50" relative="1" as="geometry">
            <mxPoint x="-6" y="504" as="sourcePoint" />
            <mxPoint x="42" y="384" as="targetPoint" />
          </mxGeometry>
        </mxCell>
        <mxCell id="XLs1MbDZU_l78vJKN4ay-193" value="id_contato" style="text;html=1;align=center;verticalAlign=middle;resizable=0;points=[];autosize=1;strokeColor=none;fillColor=none;" vertex="1" parent="WIyWlLk6GJQsqaUBKTNV-1">
          <mxGeometry x="-47" y="504" width="73" height="26" as="geometry" />
        </mxCell>
        <mxCell id="XLs1MbDZU_l78vJKN4ay-194" value="" style="endArrow=none;html=1;rounded=0;entryX=1;entryY=1;entryDx=0;entryDy=0;" edge="1" parent="WIyWlLk6GJQsqaUBKTNV-1" target="XLs1MbDZU_l78vJKN4ay-11">
          <mxGeometry width="50" height="50" relative="1" as="geometry">
            <mxPoint x="173" y="525" as="sourcePoint" />
            <mxPoint x="223" y="475" as="targetPoint" />
          </mxGeometry>
        </mxCell>
        <mxCell id="XLs1MbDZU_l78vJKN4ay-195" value="id_convenio" style="text;html=1;align=center;verticalAlign=middle;resizable=0;points=[];autosize=1;strokeColor=none;fillColor=none;" vertex="1" parent="WIyWlLk6GJQsqaUBKTNV-1">
          <mxGeometry x="135" y="527" width="82" height="26" as="geometry" />
        </mxCell>
        <mxCell id="XLs1MbDZU_l78vJKN4ay-196" value="" style="endArrow=none;html=1;rounded=0;exitX=0.115;exitY=0.021;exitDx=0;exitDy=0;exitPerimeter=0;" edge="1" parent="WIyWlLk6GJQsqaUBKTNV-1" source="XLs1MbDZU_l78vJKN4ay-4">
          <mxGeometry width="50" height="50" relative="1" as="geometry">
            <mxPoint x="550" y="188" as="sourcePoint" />
            <mxPoint x="392" y="101" as="targetPoint" />
          </mxGeometry>
        </mxCell>
        <mxCell id="XLs1MbDZU_l78vJKN4ay-197" value="id" style="text;html=1;align=center;verticalAlign=middle;resizable=0;points=[];autosize=1;strokeColor=none;fillColor=none;" vertex="1" parent="WIyWlLk6GJQsqaUBKTNV-1">
          <mxGeometry x="379.5" y="80" width="27" height="26" as="geometry" />
        </mxCell>
        <mxCell id="XLs1MbDZU_l78vJKN4ay-198" value="" style="endArrow=none;html=1;rounded=0;exitX=0.294;exitY=0.021;exitDx=0;exitDy=0;exitPerimeter=0;" edge="1" parent="WIyWlLk6GJQsqaUBKTNV-1" source="XLs1MbDZU_l78vJKN4ay-4">
          <mxGeometry width="50" height="50" relative="1" as="geometry">
            <mxPoint x="550" y="188" as="sourcePoint" />
            <mxPoint x="415" y="100" as="targetPoint" />
          </mxGeometry>
        </mxCell>
        <mxCell id="XLs1MbDZU_l78vJKN4ay-199" value="data" style="text;html=1;align=center;verticalAlign=middle;resizable=0;points=[];autosize=1;strokeColor=none;fillColor=none;" vertex="1" parent="WIyWlLk6GJQsqaUBKTNV-1">
          <mxGeometry x="395.5" y="80" width="41" height="26" as="geometry" />
        </mxCell>
        <mxCell id="XLs1MbDZU_l78vJKN4ay-200" value="" style="endArrow=none;html=1;rounded=0;exitX=0.5;exitY=0;exitDx=0;exitDy=0;" edge="1" parent="WIyWlLk6GJQsqaUBKTNV-1" source="XLs1MbDZU_l78vJKN4ay-4">
          <mxGeometry width="50" height="50" relative="1" as="geometry">
            <mxPoint x="550" y="188" as="sourcePoint" />
            <mxPoint x="440" y="83" as="targetPoint" />
          </mxGeometry>
        </mxCell>
        <mxCell id="XLs1MbDZU_l78vJKN4ay-201" value="id_medico" style="text;html=1;align=center;verticalAlign=middle;resizable=0;points=[];autosize=1;strokeColor=none;fillColor=none;" vertex="1" parent="WIyWlLk6GJQsqaUBKTNV-1">
          <mxGeometry x="413" y="58" width="73" height="26" as="geometry" />
        </mxCell>
        <mxCell id="XLs1MbDZU_l78vJKN4ay-202" value="" style="endArrow=none;html=1;rounded=0;exitX=0.664;exitY=-0.004;exitDx=0;exitDy=0;exitPerimeter=0;" edge="1" parent="WIyWlLk6GJQsqaUBKTNV-1" source="XLs1MbDZU_l78vJKN4ay-4">
          <mxGeometry width="50" height="50" relative="1" as="geometry">
            <mxPoint x="550" y="188" as="sourcePoint" />
            <mxPoint x="460" y="98" as="targetPoint" />
          </mxGeometry>
        </mxCell>
        <mxCell id="XLs1MbDZU_l78vJKN4ay-203" value="id_paciente" style="text;html=1;align=center;verticalAlign=middle;resizable=0;points=[];autosize=1;strokeColor=none;fillColor=none;" vertex="1" parent="WIyWlLk6GJQsqaUBKTNV-1">
          <mxGeometry x="436.5" y="77" width="79" height="26" as="geometry" />
        </mxCell>
        <mxCell id="XLs1MbDZU_l78vJKN4ay-204" value="" style="endArrow=none;html=1;rounded=0;exitX=1;exitY=0;exitDx=0;exitDy=0;" edge="1" parent="WIyWlLk6GJQsqaUBKTNV-1" source="XLs1MbDZU_l78vJKN4ay-4">
          <mxGeometry width="50" height="50" relative="1" as="geometry">
            <mxPoint x="550" y="188" as="sourcePoint" />
            <mxPoint x="520" y="103" as="targetPoint" />
          </mxGeometry>
        </mxCell>
        <mxCell id="XLs1MbDZU_l78vJKN4ay-205" value="valor" style="text;html=1;align=center;verticalAlign=middle;resizable=0;points=[];autosize=1;strokeColor=none;fillColor=none;" vertex="1" parent="WIyWlLk6GJQsqaUBKTNV-1">
          <mxGeometry x="509" y="81" width="44" height="26" as="geometry" />
        </mxCell>
        <mxCell id="XLs1MbDZU_l78vJKN4ay-206" value="" style="endArrow=none;html=1;rounded=0;exitX=1;exitY=0.25;exitDx=0;exitDy=0;" edge="1" parent="WIyWlLk6GJQsqaUBKTNV-1" source="XLs1MbDZU_l78vJKN4ay-4">
          <mxGeometry width="50" height="50" relative="1" as="geometry">
            <mxPoint x="550" y="188" as="sourcePoint" />
            <mxPoint x="536" y="121" as="targetPoint" />
          </mxGeometry>
        </mxCell>
        <mxCell id="XLs1MbDZU_l78vJKN4ay-207" value="id_carteira" style="text;html=1;align=center;verticalAlign=middle;resizable=0;points=[];autosize=1;strokeColor=none;fillColor=none;" vertex="1" parent="WIyWlLk6GJQsqaUBKTNV-1">
          <mxGeometry x="530" y="103" width="74" height="26" as="geometry" />
        </mxCell>
        <mxCell id="XLs1MbDZU_l78vJKN4ay-208" value="" style="endArrow=none;html=1;rounded=0;exitX=1;exitY=1;exitDx=0;exitDy=0;" edge="1" parent="WIyWlLk6GJQsqaUBKTNV-1" source="XLs1MbDZU_l78vJKN4ay-4">
          <mxGeometry width="50" height="50" relative="1" as="geometry">
            <mxPoint x="593" y="304" as="sourcePoint" />
            <mxPoint x="520" y="198" as="targetPoint" />
          </mxGeometry>
        </mxCell>
        <mxCell id="XLs1MbDZU_l78vJKN4ay-209" value="especialdiade" style="text;html=1;align=center;verticalAlign=middle;resizable=0;points=[];autosize=1;strokeColor=none;fillColor=none;" vertex="1" parent="WIyWlLk6GJQsqaUBKTNV-1">
          <mxGeometry x="475" y="198" width="91" height="26" as="geometry" />
        </mxCell>
        <mxCell id="XLs1MbDZU_l78vJKN4ay-210" value="" style="endArrow=none;html=1;rounded=0;exitX=0.074;exitY=0.04;exitDx=0;exitDy=0;exitPerimeter=0;" edge="1" parent="WIyWlLk6GJQsqaUBKTNV-1" source="XLs1MbDZU_l78vJKN4ay-25">
          <mxGeometry width="50" height="50" relative="1" as="geometry">
            <mxPoint x="610" y="531" as="sourcePoint" />
            <mxPoint x="579" y="489" as="targetPoint" />
          </mxGeometry>
        </mxCell>
        <mxCell id="XLs1MbDZU_l78vJKN4ay-211" value="id" style="text;html=1;align=center;verticalAlign=middle;resizable=0;points=[];autosize=1;strokeColor=none;fillColor=none;" vertex="1" parent="WIyWlLk6GJQsqaUBKTNV-1">
          <mxGeometry x="566" y="467" width="27" height="26" as="geometry" />
        </mxCell>
        <mxCell id="XLs1MbDZU_l78vJKN4ay-212" value="" style="endArrow=none;html=1;rounded=0;exitX=0.683;exitY=0;exitDx=0;exitDy=0;exitPerimeter=0;" edge="1" parent="WIyWlLk6GJQsqaUBKTNV-1" source="XLs1MbDZU_l78vJKN4ay-25">
          <mxGeometry width="50" height="50" relative="1" as="geometry">
            <mxPoint x="654" y="505" as="sourcePoint" />
            <mxPoint x="652" y="481" as="targetPoint" />
          </mxGeometry>
        </mxCell>
        <mxCell id="XLs1MbDZU_l78vJKN4ay-213" value="remedio" style="text;html=1;align=center;verticalAlign=middle;resizable=0;points=[];autosize=1;strokeColor=none;fillColor=none;" vertex="1" parent="WIyWlLk6GJQsqaUBKTNV-1">
          <mxGeometry x="624" y="460" width="61" height="26" as="geometry" />
        </mxCell>
        <mxCell id="XLs1MbDZU_l78vJKN4ay-214" value="" style="endArrow=none;html=1;rounded=0;exitX=1;exitY=0;exitDx=0;exitDy=0;" edge="1" parent="WIyWlLk6GJQsqaUBKTNV-1" source="XLs1MbDZU_l78vJKN4ay-25">
          <mxGeometry width="50" height="50" relative="1" as="geometry">
            <mxPoint x="675" y="506" as="sourcePoint" />
            <mxPoint x="698" y="481" as="targetPoint" />
          </mxGeometry>
        </mxCell>
        <mxCell id="XLs1MbDZU_l78vJKN4ay-215" value="quantidade" style="text;html=1;align=center;verticalAlign=middle;resizable=0;points=[];autosize=1;strokeColor=none;fillColor=none;" vertex="1" parent="WIyWlLk6GJQsqaUBKTNV-1">
          <mxGeometry x="675" y="460" width="77" height="26" as="geometry" />
        </mxCell>
        <mxCell id="XLs1MbDZU_l78vJKN4ay-216" value="" style="endArrow=none;html=1;rounded=0;exitX=1;exitY=0.25;exitDx=0;exitDy=0;" edge="1" parent="WIyWlLk6GJQsqaUBKTNV-1" source="XLs1MbDZU_l78vJKN4ay-25">
          <mxGeometry width="50" height="50" relative="1" as="geometry">
            <mxPoint x="671" y="501" as="sourcePoint" />
            <mxPoint x="717" y="525" as="targetPoint" />
          </mxGeometry>
        </mxCell>
        <mxCell id="XLs1MbDZU_l78vJKN4ay-217" value="uso" style="text;html=1;align=center;verticalAlign=middle;resizable=0;points=[];autosize=1;strokeColor=none;fillColor=none;" vertex="1" parent="WIyWlLk6GJQsqaUBKTNV-1">
          <mxGeometry x="715" y="510" width="37" height="26" as="geometry" />
        </mxCell>
        <mxCell id="XLs1MbDZU_l78vJKN4ay-218" value="" style="endArrow=none;html=1;rounded=0;exitX=1.019;exitY=0.595;exitDx=0;exitDy=0;exitPerimeter=0;" edge="1" parent="WIyWlLk6GJQsqaUBKTNV-1" source="XLs1MbDZU_l78vJKN4ay-25">
          <mxGeometry width="50" height="50" relative="1" as="geometry">
            <mxPoint x="671" y="501" as="sourcePoint" />
            <mxPoint x="715" y="546" as="targetPoint" />
          </mxGeometry>
        </mxCell>
        <mxCell id="XLs1MbDZU_l78vJKN4ay-219" value="id_consulta" style="text;html=1;align=center;verticalAlign=middle;resizable=0;points=[];autosize=1;strokeColor=none;fillColor=none;" vertex="1" parent="WIyWlLk6GJQsqaUBKTNV-1">
          <mxGeometry x="715" y="533" width="79" height="26" as="geometry" />
        </mxCell>
        <mxCell id="XLs1MbDZU_l78vJKN4ay-221" value="" style="endArrow=none;html=1;rounded=0;exitX=0.096;exitY=0.033;exitDx=0;exitDy=0;exitPerimeter=0;entryX=0.608;entryY=0.966;entryDx=0;entryDy=0;entryPerimeter=0;" edge="1" parent="WIyWlLk6GJQsqaUBKTNV-1" source="XLs1MbDZU_l78vJKN4ay-35" target="XLs1MbDZU_l78vJKN4ay-222">
          <mxGeometry width="50" height="50" relative="1" as="geometry">
            <mxPoint x="195" y="595" as="sourcePoint" />
            <mxPoint x="27" y="610" as="targetPoint" />
          </mxGeometry>
        </mxCell>
        <mxCell id="XLs1MbDZU_l78vJKN4ay-222" value="id" style="text;html=1;align=center;verticalAlign=middle;resizable=0;points=[];autosize=1;strokeColor=none;fillColor=none;" vertex="1" parent="WIyWlLk6GJQsqaUBKTNV-1">
          <mxGeometry x="15" y="594" width="27" height="26" as="geometry" />
        </mxCell>
        <mxCell id="XLs1MbDZU_l78vJKN4ay-224" value="" style="endArrow=none;html=1;rounded=0;" edge="1" parent="WIyWlLk6GJQsqaUBKTNV-1">
          <mxGeometry width="50" height="50" relative="1" as="geometry">
            <mxPoint x="100" y="641" as="sourcePoint" />
            <mxPoint x="100" y="618" as="targetPoint" />
          </mxGeometry>
        </mxCell>
        <mxCell id="XLs1MbDZU_l78vJKN4ay-225" value="carteira" style="text;html=1;align=center;verticalAlign=middle;resizable=0;points=[];autosize=1;strokeColor=none;fillColor=none;" vertex="1" parent="WIyWlLk6GJQsqaUBKTNV-1">
          <mxGeometry x="77" y="589" width="58" height="26" as="geometry" />
        </mxCell>
        <mxCell id="XLs1MbDZU_l78vJKN4ay-226" value="" style="endArrow=none;html=1;rounded=0;exitX=0.077;exitY=-0.004;exitDx=0;exitDy=0;exitPerimeter=0;" edge="1" parent="WIyWlLk6GJQsqaUBKTNV-1" source="XLs1MbDZU_l78vJKN4ay-0">
          <mxGeometry width="50" height="50" relative="1" as="geometry">
            <mxPoint x="109" y="119" as="sourcePoint" />
            <mxPoint x="29" y="103" as="targetPoint" />
          </mxGeometry>
        </mxCell>
        <mxCell id="XLs1MbDZU_l78vJKN4ay-227" value="id" style="text;html=1;align=center;verticalAlign=middle;resizable=0;points=[];autosize=1;strokeColor=none;fillColor=none;" vertex="1" parent="WIyWlLk6GJQsqaUBKTNV-1">
          <mxGeometry x="15" y="79" width="27" height="26" as="geometry" />
        </mxCell>
        <mxCell id="XLs1MbDZU_l78vJKN4ay-228" value="" style="endArrow=none;html=1;rounded=0;exitX=0.25;exitY=0;exitDx=0;exitDy=0;" edge="1" parent="WIyWlLk6GJQsqaUBKTNV-1" source="XLs1MbDZU_l78vJKN4ay-0">
          <mxGeometry width="50" height="50" relative="1" as="geometry">
            <mxPoint x="194" y="200" as="sourcePoint" />
            <mxPoint x="50" y="96" as="targetPoint" />
          </mxGeometry>
        </mxCell>
        <mxCell id="XLs1MbDZU_l78vJKN4ay-229" value="nome" style="text;html=1;align=center;verticalAlign=middle;resizable=0;points=[];autosize=1;strokeColor=none;fillColor=none;" vertex="1" parent="WIyWlLk6GJQsqaUBKTNV-1">
          <mxGeometry x="29" y="75" width="48" height="26" as="geometry" />
        </mxCell>
        <mxCell id="XLs1MbDZU_l78vJKN4ay-230" value="" style="endArrow=none;html=1;rounded=0;exitX=0.664;exitY=0.021;exitDx=0;exitDy=0;exitPerimeter=0;" edge="1" parent="WIyWlLk6GJQsqaUBKTNV-1" source="XLs1MbDZU_l78vJKN4ay-0">
          <mxGeometry width="50" height="50" relative="1" as="geometry">
            <mxPoint x="229" y="156" as="sourcePoint" />
            <mxPoint x="100" y="101" as="targetPoint" />
          </mxGeometry>
        </mxCell>
        <mxCell id="XLs1MbDZU_l78vJKN4ay-231" value="crm" style="text;html=1;align=center;verticalAlign=middle;resizable=0;points=[];autosize=1;strokeColor=none;fillColor=none;" vertex="1" parent="WIyWlLk6GJQsqaUBKTNV-1">
          <mxGeometry x="82" y="81" width="38" height="26" as="geometry" />
        </mxCell>
        <mxCell id="XLs1MbDZU_l78vJKN4ay-232" value="" style="endArrow=none;html=1;rounded=0;exitX=0.861;exitY=0.009;exitDx=0;exitDy=0;exitPerimeter=0;" edge="1" parent="WIyWlLk6GJQsqaUBKTNV-1" source="XLs1MbDZU_l78vJKN4ay-0">
          <mxGeometry width="50" height="50" relative="1" as="geometry">
            <mxPoint x="229" y="156" as="sourcePoint" />
            <mxPoint x="123" y="80" as="targetPoint" />
          </mxGeometry>
        </mxCell>
        <mxCell id="XLs1MbDZU_l78vJKN4ay-233" value="id_tipo" style="text;html=1;align=center;verticalAlign=middle;resizable=0;points=[];autosize=1;strokeColor=none;fillColor=none;" vertex="1" parent="WIyWlLk6GJQsqaUBKTNV-1">
          <mxGeometry x="102" y="58" width="53" height="26" as="geometry" />
        </mxCell>
        <mxCell id="XLs1MbDZU_l78vJKN4ay-234" value="" style="endArrow=none;html=1;rounded=0;entryX=1;entryY=0;entryDx=0;entryDy=0;" edge="1" parent="WIyWlLk6GJQsqaUBKTNV-1" target="XLs1MbDZU_l78vJKN4ay-0">
          <mxGeometry width="50" height="50" relative="1" as="geometry">
            <mxPoint x="156" y="95" as="sourcePoint" />
            <mxPoint x="125" y="115" as="targetPoint" />
          </mxGeometry>
        </mxCell>
        <mxCell id="XLs1MbDZU_l78vJKN4ay-235" value="id_especialidade" style="text;html=1;align=center;verticalAlign=middle;resizable=0;points=[];autosize=1;strokeColor=none;fillColor=none;" vertex="1" parent="WIyWlLk6GJQsqaUBKTNV-1">
          <mxGeometry x="135" y="75" width="107" height="26" as="geometry" />
        </mxCell>
        <mxCell id="XLs1MbDZU_l78vJKN4ay-236" value="" style="endArrow=none;html=1;rounded=0;entryX=0.086;entryY=0.002;entryDx=0;entryDy=0;entryPerimeter=0;" edge="1" parent="WIyWlLk6GJQsqaUBKTNV-1" target="XLs1MbDZU_l78vJKN4ay-15">
          <mxGeometry width="50" height="50" relative="1" as="geometry">
            <mxPoint x="303" y="286" as="sourcePoint" />
            <mxPoint x="302" y="358" as="targetPoint" />
          </mxGeometry>
        </mxCell>
        <mxCell id="XLs1MbDZU_l78vJKN4ay-237" value="id" style="text;html=1;align=center;verticalAlign=middle;resizable=0;points=[];autosize=1;strokeColor=none;fillColor=none;" vertex="1" parent="WIyWlLk6GJQsqaUBKTNV-1">
          <mxGeometry x="288" y="260" width="27" height="26" as="geometry" />
        </mxCell>
        <mxCell id="XLs1MbDZU_l78vJKN4ay-238" value="" style="endArrow=none;html=1;rounded=0;entryX=0.25;entryY=0;entryDx=0;entryDy=0;" edge="1" parent="WIyWlLk6GJQsqaUBKTNV-1" target="XLs1MbDZU_l78vJKN4ay-15">
          <mxGeometry width="50" height="50" relative="1" as="geometry">
            <mxPoint x="323" y="292" as="sourcePoint" />
            <mxPoint x="302" y="358" as="targetPoint" />
          </mxGeometry>
        </mxCell>
        <mxCell id="XLs1MbDZU_l78vJKN4ay-239" value="nome" style="text;html=1;align=center;verticalAlign=middle;resizable=0;points=[];autosize=1;strokeColor=none;fillColor=none;" vertex="1" parent="WIyWlLk6GJQsqaUBKTNV-1">
          <mxGeometry x="300" y="270" width="48" height="26" as="geometry" />
        </mxCell>
        <mxCell id="XLs1MbDZU_l78vJKN4ay-240" value="" style="endArrow=none;html=1;rounded=0;entryX=0.5;entryY=0;entryDx=0;entryDy=0;" edge="1" parent="WIyWlLk6GJQsqaUBKTNV-1" target="XLs1MbDZU_l78vJKN4ay-15">
          <mxGeometry width="50" height="50" relative="1" as="geometry">
            <mxPoint x="353" y="268" as="sourcePoint" />
            <mxPoint x="302" y="358" as="targetPoint" />
          </mxGeometry>
        </mxCell>
        <mxCell id="XLs1MbDZU_l78vJKN4ay-241" value="endereço" style="text;html=1;align=center;verticalAlign=middle;resizable=0;points=[];autosize=1;strokeColor=none;fillColor=none;" vertex="1" parent="WIyWlLk6GJQsqaUBKTNV-1">
          <mxGeometry x="320" y="244" width="68" height="26" as="geometry" />
        </mxCell>
        <mxCell id="XLs1MbDZU_l78vJKN4ay-242" value="" style="endArrow=none;html=1;rounded=0;exitX=1;exitY=0.5;exitDx=0;exitDy=0;entryX=0;entryY=0.5;entryDx=0;entryDy=0;" edge="1" parent="WIyWlLk6GJQsqaUBKTNV-1" source="XLs1MbDZU_l78vJKN4ay-6" target="XLs1MbDZU_l78vJKN4ay-244">
          <mxGeometry width="50" height="50" relative="1" as="geometry">
            <mxPoint x="824" y="138" as="sourcePoint" />
            <mxPoint x="770" y="150" as="targetPoint" />
          </mxGeometry>
        </mxCell>
        <mxCell id="XLs1MbDZU_l78vJKN4ay-262" value="(1)" style="edgeLabel;html=1;align=center;verticalAlign=middle;resizable=0;points=[];" vertex="1" connectable="0" parent="XLs1MbDZU_l78vJKN4ay-242">
          <mxGeometry x="0.7352" relative="1" as="geometry">
            <mxPoint as="offset" />
          </mxGeometry>
        </mxCell>
        <mxCell id="XLs1MbDZU_l78vJKN4ay-244" value="Internação" style="rounded=1;whiteSpace=wrap;html=1;" vertex="1" parent="WIyWlLk6GJQsqaUBKTNV-1">
          <mxGeometry x="773" y="120" width="120" height="60" as="geometry" />
        </mxCell>
        <mxCell id="XLs1MbDZU_l78vJKN4ay-246" value="" style="endArrow=none;html=1;rounded=0;exitX=0.071;exitY=-0.009;exitDx=0;exitDy=0;exitPerimeter=0;" edge="1" parent="WIyWlLk6GJQsqaUBKTNV-1" source="XLs1MbDZU_l78vJKN4ay-244" target="XLs1MbDZU_l78vJKN4ay-247">
          <mxGeometry width="50" height="50" relative="1" as="geometry">
            <mxPoint x="835" y="182" as="sourcePoint" />
            <mxPoint x="784" y="97" as="targetPoint" />
          </mxGeometry>
        </mxCell>
        <mxCell id="XLs1MbDZU_l78vJKN4ay-247" value="id" style="text;html=1;align=center;verticalAlign=middle;resizable=0;points=[];autosize=1;strokeColor=none;fillColor=none;" vertex="1" parent="WIyWlLk6GJQsqaUBKTNV-1">
          <mxGeometry x="767" y="68" width="27" height="26" as="geometry" />
        </mxCell>
        <mxCell id="XLs1MbDZU_l78vJKN4ay-248" value="" style="endArrow=none;html=1;rounded=0;exitX=0.326;exitY=0.027;exitDx=0;exitDy=0;exitPerimeter=0;entryX=0.468;entryY=0.972;entryDx=0;entryDy=0;entryPerimeter=0;" edge="1" parent="WIyWlLk6GJQsqaUBKTNV-1" source="XLs1MbDZU_l78vJKN4ay-244" target="XLs1MbDZU_l78vJKN4ay-249">
          <mxGeometry width="50" height="50" relative="1" as="geometry">
            <mxPoint x="835" y="182" as="sourcePoint" />
            <mxPoint x="796" y="105" as="targetPoint" />
          </mxGeometry>
        </mxCell>
        <mxCell id="XLs1MbDZU_l78vJKN4ay-249" value="data_entra" style="text;html=1;align=center;verticalAlign=middle;resizable=0;points=[];autosize=1;strokeColor=none;fillColor=none;" vertex="1" parent="WIyWlLk6GJQsqaUBKTNV-1">
          <mxGeometry x="777" y="81" width="75" height="26" as="geometry" />
        </mxCell>
        <mxCell id="XLs1MbDZU_l78vJKN4ay-250" value="" style="endArrow=none;html=1;rounded=0;exitX=0.627;exitY=-0.009;exitDx=0;exitDy=0;exitPerimeter=0;" edge="1" parent="WIyWlLk6GJQsqaUBKTNV-1" source="XLs1MbDZU_l78vJKN4ay-244">
          <mxGeometry width="50" height="50" relative="1" as="geometry">
            <mxPoint x="856" y="171" as="sourcePoint" />
            <mxPoint x="848" y="79" as="targetPoint" />
          </mxGeometry>
        </mxCell>
        <mxCell id="XLs1MbDZU_l78vJKN4ay-251" value="data_prev_alta" style="text;html=1;align=center;verticalAlign=middle;resizable=0;points=[];autosize=1;strokeColor=none;fillColor=none;" vertex="1" parent="WIyWlLk6GJQsqaUBKTNV-1">
          <mxGeometry x="798" y="55" width="97" height="26" as="geometry" />
        </mxCell>
        <mxCell id="XLs1MbDZU_l78vJKN4ay-252" value="" style="endArrow=none;html=1;rounded=0;exitX=0.808;exitY=-0.002;exitDx=0;exitDy=0;exitPerimeter=0;" edge="1" parent="WIyWlLk6GJQsqaUBKTNV-1" source="XLs1MbDZU_l78vJKN4ay-244">
          <mxGeometry width="50" height="50" relative="1" as="geometry">
            <mxPoint x="856" y="171" as="sourcePoint" />
            <mxPoint x="870" y="99" as="targetPoint" />
          </mxGeometry>
        </mxCell>
        <mxCell id="XLs1MbDZU_l78vJKN4ay-253" value="data_alta" style="text;html=1;align=center;verticalAlign=middle;resizable=0;points=[];autosize=1;strokeColor=none;fillColor=none;" vertex="1" parent="WIyWlLk6GJQsqaUBKTNV-1">
          <mxGeometry x="844" y="77" width="67" height="26" as="geometry" />
        </mxCell>
        <mxCell id="XLs1MbDZU_l78vJKN4ay-254" value="" style="endArrow=none;html=1;rounded=0;entryX=1;entryY=0;entryDx=0;entryDy=0;" edge="1" parent="WIyWlLk6GJQsqaUBKTNV-1" target="XLs1MbDZU_l78vJKN4ay-244">
          <mxGeometry width="50" height="50" relative="1" as="geometry">
            <mxPoint x="917" y="100" as="sourcePoint" />
            <mxPoint x="906" y="121" as="targetPoint" />
          </mxGeometry>
        </mxCell>
        <mxCell id="XLs1MbDZU_l78vJKN4ay-255" value="procedimento" style="text;html=1;align=center;verticalAlign=middle;resizable=0;points=[];autosize=1;strokeColor=none;fillColor=none;" vertex="1" parent="WIyWlLk6GJQsqaUBKTNV-1">
          <mxGeometry x="898" y="79" width="91" height="26" as="geometry" />
        </mxCell>
        <mxCell id="XLs1MbDZU_l78vJKN4ay-256" value="" style="endArrow=none;html=1;rounded=0;exitX=0.479;exitY=0.991;exitDx=0;exitDy=0;exitPerimeter=0;entryX=0.5;entryY=0;entryDx=0;entryDy=0;" edge="1" parent="WIyWlLk6GJQsqaUBKTNV-1" source="XLs1MbDZU_l78vJKN4ay-244" target="XLs1MbDZU_l78vJKN4ay-257">
          <mxGeometry width="50" height="50" relative="1" as="geometry">
            <mxPoint x="939" y="164" as="sourcePoint" />
            <mxPoint x="830" y="240" as="targetPoint" />
          </mxGeometry>
        </mxCell>
        <mxCell id="XLs1MbDZU_l78vJKN4ay-263" value="(N)" style="edgeLabel;html=1;align=center;verticalAlign=middle;resizable=0;points=[];" vertex="1" connectable="0" parent="XLs1MbDZU_l78vJKN4ay-256">
          <mxGeometry x="-0.8021" y="1" relative="1" as="geometry">
            <mxPoint x="-1" y="4" as="offset" />
          </mxGeometry>
        </mxCell>
        <mxCell id="XLs1MbDZU_l78vJKN4ay-257" value="Requer" style="rhombus;whiteSpace=wrap;html=1;" vertex="1" parent="WIyWlLk6GJQsqaUBKTNV-1">
          <mxGeometry x="790" y="244" width="80" height="80" as="geometry" />
        </mxCell>
        <mxCell id="XLs1MbDZU_l78vJKN4ay-259" value="" style="endArrow=none;html=1;rounded=0;exitX=0.5;exitY=1;exitDx=0;exitDy=0;" edge="1" parent="WIyWlLk6GJQsqaUBKTNV-1" source="XLs1MbDZU_l78vJKN4ay-257">
          <mxGeometry width="50" height="50" relative="1" as="geometry">
            <mxPoint x="832.79" y="325" as="sourcePoint" />
            <mxPoint x="830" y="390" as="targetPoint" />
          </mxGeometry>
        </mxCell>
        <mxCell id="XLs1MbDZU_l78vJKN4ay-264" value="(N)" style="edgeLabel;html=1;align=center;verticalAlign=middle;resizable=0;points=[];" vertex="1" connectable="0" parent="XLs1MbDZU_l78vJKN4ay-259">
          <mxGeometry x="0.7066" relative="1" as="geometry">
            <mxPoint as="offset" />
          </mxGeometry>
        </mxCell>
        <mxCell id="XLs1MbDZU_l78vJKN4ay-260" value="Enfermeiro" style="rounded=1;whiteSpace=wrap;html=1;" vertex="1" parent="WIyWlLk6GJQsqaUBKTNV-1">
          <mxGeometry x="770" y="390" width="120" height="60" as="geometry" />
        </mxCell>
        <mxCell id="XLs1MbDZU_l78vJKN4ay-265" value="" style="endArrow=none;html=1;rounded=0;exitX=0.033;exitY=0;exitDx=0;exitDy=0;exitPerimeter=0;" edge="1" parent="WIyWlLk6GJQsqaUBKTNV-1" source="XLs1MbDZU_l78vJKN4ay-260">
          <mxGeometry width="50" height="50" relative="1" as="geometry">
            <mxPoint x="788" y="325" as="sourcePoint" />
            <mxPoint x="774" y="368" as="targetPoint" />
          </mxGeometry>
        </mxCell>
        <mxCell id="XLs1MbDZU_l78vJKN4ay-266" value="ID" style="text;html=1;align=center;verticalAlign=middle;resizable=0;points=[];autosize=1;strokeColor=none;fillColor=none;" vertex="1" parent="WIyWlLk6GJQsqaUBKTNV-1">
          <mxGeometry x="758" y="349" width="30" height="26" as="geometry" />
        </mxCell>
        <mxCell id="XLs1MbDZU_l78vJKN4ay-267" value="" style="endArrow=none;html=1;rounded=0;" edge="1" parent="WIyWlLk6GJQsqaUBKTNV-1">
          <mxGeometry width="50" height="50" relative="1" as="geometry">
            <mxPoint x="787" y="389" as="sourcePoint" />
            <mxPoint x="787" y="345" as="targetPoint" />
          </mxGeometry>
        </mxCell>
        <mxCell id="XLs1MbDZU_l78vJKN4ay-268" value="Nome" style="text;html=1;align=center;verticalAlign=middle;resizable=0;points=[];autosize=1;strokeColor=none;fillColor=none;" vertex="1" parent="WIyWlLk6GJQsqaUBKTNV-1">
          <mxGeometry x="762" y="323" width="50" height="26" as="geometry" />
        </mxCell>
        <mxCell id="XLs1MbDZU_l78vJKN4ay-269" value="" style="endArrow=none;html=1;rounded=0;" edge="1" parent="WIyWlLk6GJQsqaUBKTNV-1">
          <mxGeometry width="50" height="50" relative="1" as="geometry">
            <mxPoint x="847" y="388" as="sourcePoint" />
            <mxPoint x="847" y="357" as="targetPoint" />
          </mxGeometry>
        </mxCell>
        <mxCell id="XLs1MbDZU_l78vJKN4ay-270" value="id_doc" style="text;html=1;align=center;verticalAlign=middle;resizable=0;points=[];autosize=1;strokeColor=none;fillColor=none;" vertex="1" parent="WIyWlLk6GJQsqaUBKTNV-1">
          <mxGeometry x="825" y="335" width="53" height="26" as="geometry" />
        </mxCell>
        <mxCell id="XLs1MbDZU_l78vJKN4ay-271" value="" style="endArrow=none;html=1;rounded=0;" edge="1" parent="WIyWlLk6GJQsqaUBKTNV-1">
          <mxGeometry width="50" height="50" relative="1" as="geometry">
            <mxPoint x="869" y="389" as="sourcePoint" />
            <mxPoint x="869" y="373" as="targetPoint" />
          </mxGeometry>
        </mxCell>
        <mxCell id="XLs1MbDZU_l78vJKN4ay-272" value="cre" style="text;html=1;align=center;verticalAlign=middle;resizable=0;points=[];autosize=1;strokeColor=none;fillColor=none;" vertex="1" parent="WIyWlLk6GJQsqaUBKTNV-1">
          <mxGeometry x="852" y="353" width="35" height="26" as="geometry" />
        </mxCell>
        <mxCell id="XLs1MbDZU_l78vJKN4ay-273" value="" style="endArrow=none;html=1;rounded=0;exitX=1;exitY=0.5;exitDx=0;exitDy=0;" edge="1" parent="WIyWlLk6GJQsqaUBKTNV-1" source="XLs1MbDZU_l78vJKN4ay-244">
          <mxGeometry width="50" height="50" relative="1" as="geometry">
            <mxPoint x="1080" y="223" as="sourcePoint" />
            <mxPoint x="968" y="150" as="targetPoint" />
          </mxGeometry>
        </mxCell>
        <mxCell id="XLs1MbDZU_l78vJKN4ay-274" value="Ocupa" style="rhombus;whiteSpace=wrap;html=1;" vertex="1" parent="WIyWlLk6GJQsqaUBKTNV-1">
          <mxGeometry x="968" y="110" width="80" height="80" as="geometry" />
        </mxCell>
        <mxCell id="XLs1MbDZU_l78vJKN4ay-275" value="" style="endArrow=none;html=1;rounded=0;exitX=1;exitY=0.5;exitDx=0;exitDy=0;" edge="1" parent="WIyWlLk6GJQsqaUBKTNV-1" source="XLs1MbDZU_l78vJKN4ay-274">
          <mxGeometry width="50" height="50" relative="1" as="geometry">
            <mxPoint x="903" y="160" as="sourcePoint" />
            <mxPoint x="1112" y="150" as="targetPoint" />
          </mxGeometry>
        </mxCell>
        <mxCell id="XLs1MbDZU_l78vJKN4ay-276" value="Quarto" style="rounded=1;whiteSpace=wrap;html=1;" vertex="1" parent="WIyWlLk6GJQsqaUBKTNV-1">
          <mxGeometry x="1113" y="120" width="120" height="60" as="geometry" />
        </mxCell>
        <mxCell id="XLs1MbDZU_l78vJKN4ay-277" value="" style="endArrow=none;html=1;rounded=0;exitX=1;exitY=0.5;exitDx=0;exitDy=0;" edge="1" parent="WIyWlLk6GJQsqaUBKTNV-1">
          <mxGeometry width="50" height="50" relative="1" as="geometry">
            <mxPoint x="1233" y="149.7" as="sourcePoint" />
            <mxPoint x="1297" y="149.7" as="targetPoint" />
          </mxGeometry>
        </mxCell>
        <mxCell id="XLs1MbDZU_l78vJKN4ay-278" value="Possui" style="rhombus;whiteSpace=wrap;html=1;" vertex="1" parent="WIyWlLk6GJQsqaUBKTNV-1">
          <mxGeometry x="1298" y="110" width="80" height="80" as="geometry" />
        </mxCell>
        <mxCell id="XLs1MbDZU_l78vJKN4ay-279" value="" style="endArrow=none;html=1;rounded=0;exitX=1;exitY=0.5;exitDx=0;exitDy=0;" edge="1" parent="WIyWlLk6GJQsqaUBKTNV-1">
          <mxGeometry width="50" height="50" relative="1" as="geometry">
            <mxPoint x="1378" y="149.7" as="sourcePoint" />
            <mxPoint x="1442" y="149.7" as="targetPoint" />
          </mxGeometry>
        </mxCell>
        <mxCell id="XLs1MbDZU_l78vJKN4ay-280" value="tipo_quarto" style="rounded=1;whiteSpace=wrap;html=1;" vertex="1" parent="WIyWlLk6GJQsqaUBKTNV-1">
          <mxGeometry x="1443" y="120" width="120" height="60" as="geometry" />
        </mxCell>
        <mxCell id="XLs1MbDZU_l78vJKN4ay-281" value="id" style="text;html=1;align=center;verticalAlign=middle;resizable=0;points=[];autosize=1;strokeColor=none;fillColor=none;" vertex="1" parent="WIyWlLk6GJQsqaUBKTNV-1">
          <mxGeometry x="1110" y="75" width="27" height="26" as="geometry" />
        </mxCell>
        <mxCell id="XLs1MbDZU_l78vJKN4ay-282" value="numero" style="text;html=1;align=center;verticalAlign=middle;resizable=0;points=[];autosize=1;strokeColor=none;fillColor=none;" vertex="1" parent="WIyWlLk6GJQsqaUBKTNV-1">
          <mxGeometry x="1130" y="77" width="59" height="26" as="geometry" />
        </mxCell>
        <mxCell id="XLs1MbDZU_l78vJKN4ay-283" value="id_tipo" style="text;html=1;align=center;verticalAlign=middle;resizable=0;points=[];autosize=1;strokeColor=none;fillColor=none;" vertex="1" parent="WIyWlLk6GJQsqaUBKTNV-1">
          <mxGeometry x="1181" y="75" width="53" height="26" as="geometry" />
        </mxCell>
        <mxCell id="XLs1MbDZU_l78vJKN4ay-284" value="" style="endArrow=none;html=1;rounded=0;exitX=0.089;exitY=-0.001;exitDx=0;exitDy=0;exitPerimeter=0;" edge="1" parent="WIyWlLk6GJQsqaUBKTNV-1" source="XLs1MbDZU_l78vJKN4ay-276" target="XLs1MbDZU_l78vJKN4ay-281">
          <mxGeometry width="50" height="50" relative="1" as="geometry">
            <mxPoint x="1194" y="203" as="sourcePoint" />
            <mxPoint x="1244" y="153" as="targetPoint" />
          </mxGeometry>
        </mxCell>
        <mxCell id="XLs1MbDZU_l78vJKN4ay-285" value="" style="endArrow=none;html=1;rounded=0;exitX=0.398;exitY=0.019;exitDx=0;exitDy=0;exitPerimeter=0;" edge="1" parent="WIyWlLk6GJQsqaUBKTNV-1" source="XLs1MbDZU_l78vJKN4ay-276" target="XLs1MbDZU_l78vJKN4ay-282">
          <mxGeometry width="50" height="50" relative="1" as="geometry">
            <mxPoint x="1194" y="203" as="sourcePoint" />
            <mxPoint x="1244" y="153" as="targetPoint" />
          </mxGeometry>
        </mxCell>
        <mxCell id="XLs1MbDZU_l78vJKN4ay-286" value="" style="endArrow=none;html=1;rounded=0;exitX=0.522;exitY=1.022;exitDx=0;exitDy=0;exitPerimeter=0;entryX=0.801;entryY=0.019;entryDx=0;entryDy=0;entryPerimeter=0;" edge="1" parent="WIyWlLk6GJQsqaUBKTNV-1" source="XLs1MbDZU_l78vJKN4ay-283" target="XLs1MbDZU_l78vJKN4ay-276">
          <mxGeometry width="50" height="50" relative="1" as="geometry">
            <mxPoint x="1194" y="203" as="sourcePoint" />
            <mxPoint x="1244" y="153" as="targetPoint" />
          </mxGeometry>
        </mxCell>
        <mxCell id="XLs1MbDZU_l78vJKN4ay-287" value="id" style="text;html=1;align=center;verticalAlign=middle;resizable=0;points=[];autosize=1;strokeColor=none;fillColor=none;" vertex="1" parent="WIyWlLk6GJQsqaUBKTNV-1">
          <mxGeometry x="1443" y="79" width="27" height="26" as="geometry" />
        </mxCell>
        <mxCell id="XLs1MbDZU_l78vJKN4ay-288" value="desc" style="text;html=1;align=center;verticalAlign=middle;resizable=0;points=[];autosize=1;strokeColor=none;fillColor=none;" vertex="1" parent="WIyWlLk6GJQsqaUBKTNV-1">
          <mxGeometry x="1470" y="80" width="43" height="26" as="geometry" />
        </mxCell>
        <mxCell id="XLs1MbDZU_l78vJKN4ay-289" value="valor_diaria" style="text;html=1;align=center;verticalAlign=middle;resizable=0;points=[];autosize=1;strokeColor=none;fillColor=none;" vertex="1" parent="WIyWlLk6GJQsqaUBKTNV-1">
          <mxGeometry x="1508" y="80" width="80" height="26" as="geometry" />
        </mxCell>
        <mxCell id="XLs1MbDZU_l78vJKN4ay-290" value="" style="endArrow=none;html=1;rounded=0;entryX=0.425;entryY=0.974;entryDx=0;entryDy=0;entryPerimeter=0;exitX=0.822;exitY=-0.008;exitDx=0;exitDy=0;exitPerimeter=0;" edge="1" parent="WIyWlLk6GJQsqaUBKTNV-1" source="XLs1MbDZU_l78vJKN4ay-280" target="XLs1MbDZU_l78vJKN4ay-289">
          <mxGeometry width="50" height="50" relative="1" as="geometry">
            <mxPoint x="1543" y="118" as="sourcePoint" />
            <mxPoint x="1453" y="147" as="targetPoint" />
          </mxGeometry>
        </mxCell>
        <mxCell id="XLs1MbDZU_l78vJKN4ay-291" value="" style="endArrow=none;html=1;rounded=0;entryX=0.492;entryY=0.958;entryDx=0;entryDy=0;entryPerimeter=0;" edge="1" parent="WIyWlLk6GJQsqaUBKTNV-1" target="XLs1MbDZU_l78vJKN4ay-288">
          <mxGeometry width="50" height="50" relative="1" as="geometry">
            <mxPoint x="1491" y="118" as="sourcePoint" />
            <mxPoint x="1453" y="147" as="targetPoint" />
          </mxGeometry>
        </mxCell>
        <mxCell id="XLs1MbDZU_l78vJKN4ay-292" value="" style="endArrow=none;html=1;rounded=0;exitX=0.457;exitY=0.981;exitDx=0;exitDy=0;exitPerimeter=0;entryX=0.113;entryY=0.006;entryDx=0;entryDy=0;entryPerimeter=0;" edge="1" parent="WIyWlLk6GJQsqaUBKTNV-1" source="XLs1MbDZU_l78vJKN4ay-287" target="XLs1MbDZU_l78vJKN4ay-280">
          <mxGeometry width="50" height="50" relative="1" as="geometry">
            <mxPoint x="1403" y="197" as="sourcePoint" />
            <mxPoint x="1453" y="147" as="targetPoint" />
          </mxGeometry>
        </mxCell>
      </root>
    </mxGraphModel>
  </diagram>
</mxfile>
